<svg id="Layer_1" enable-background="new 0 0 256 256" height="512" viewBox="0 0 256 256" width="512" xmlns="http://www.w3.org/2000/svg"><path d="m107.925 102.378c0-1.889-1.602-3.421-3.579-3.421h-52.336c-1.976 0-3.579 1.532-3.579 3.421v17.105h59.494z" fill="#e0ebfc"/><path d="m160.455 23.046-68.112 18.25c-2.275.61-3.581 3.116-2.915 5.598l-11.179 2.996c-2.852.764-4.544 3.695-3.78 6.547l.123.459c.764 2.852 3.695 4.544 6.547 3.78l11.178-2.995c.665 2.482 3.049 4 5.324 3.39l68.112-18.25z" fill="#e0ebfc"/><path d="m181.683 38.552-5.299-19.774z" fill="#e0ebfc"/><path d="m107.925 119.483h-59.494l-.016.015c-8.153 7.807-12.733 18.387-12.733 29.419v92.01c0 4.251 3.605 7.697 8.052 7.697h68.888c4.447 0 8.051-3.446 8.052-7.696l.008-91.998c.002-11.045-4.587-21.638-12.757-29.447z" fill="#e0ebfc"/><path d="m43.61 147.291v89.333c0 2.2 1.8 4 4 4h61.138c1.562-1.562 2.438-2.438 4-4l.008-89.333c0-1.105-.895-2-2-2h-65.146c-1.105 0-2 .895-2 2z" fill="#ffea92"/><path d="m197.16 120.543h-37.016c-1.423 0-2.738.756-3.455 1.985l-18.472 31.666c-.727 1.245-.727 2.786 0 4.031l18.472 31.666c.717 1.229 2.032 1.985 3.455 1.985h37.016c1.423 0 2.738-.756 3.455-1.985l18.472-31.666c.727-1.245.727-2.786 0-4.031l-18.472-31.666c-.717-1.229-2.033-1.985-3.455-1.985z" fill="#6bdddd"/><path d="m165.232 157.322c-.744 0-1.305.241-1.67.717-.29.379-.534.866-.719 1.43-.364.995-.903 1.753-1.603 2.256-.696.499-1.569.752-2.597.752-.95 0-1.785-.225-2.481-.668-.691-.439-1.236-1.124-1.621-2.034-.401-.948-.604-2.169-.604-3.627 0-2.168.453-3.848 1.348-4.993.872-1.118 2.015-1.661 3.494-1.661.915 0 1.687.212 2.295.63.629.432 1.189 1.106 1.666 2.002.347.656.665 1.115.971 1.405.365.346.886.521 1.548.521.623 0 1.161-.239 1.596-.711.424-.459.638-.998.638-1.604 0-.955-.372-1.965-1.106-3.001-.719-1.014-1.757-1.873-3.087-2.552-1.329-.679-2.859-1.023-4.548-1.023-1.384 0-2.707.25-3.934.745-1.233.497-2.324 1.232-3.241 2.182-.918.951-1.631 2.108-2.12 3.439-.486 1.319-.732 2.829-.732 4.486 0 1.019.097 1.996.29 2.905.193.914.488 1.788.875 2.598.388.81.865 1.554 1.42 2.214.622.729 1.318 1.326 2.068 1.776.747.448 1.587.783 2.498.993.895.207 1.899.312 2.983.312 1.45 0 2.745-.238 3.85-.708 1.105-.471 2.029-1.096 2.748-1.858.711-.755 1.242-1.54 1.578-2.333.34-.802.512-1.566.512-2.272 0-.653-.231-1.21-.687-1.653-.451-.442-.999-.665-1.628-.665z" fill="#ffea92"/><path d="m184.451 155.309c1.478-1.017 2.226-2.446 2.226-4.263 0-.64-.107-1.259-.319-1.839-.211-.578-.522-1.114-.924-1.592-.401-.475-.868-.874-1.385-1.182-.61-.369-1.305-.622-2.068-.751-.723-.122-1.584-.184-2.557-.184h-6.426c-1.009 0-1.771.25-2.263.742s-.742 1.263-.742 2.291v14.908c0 1.005.242 1.767.719 2.267.484.508 1.254.765 2.286.765h6.061c1.066 0 2.016-.054 2.821-.161.831-.109 1.581-.302 2.238-.578 1.066-.468 1.924-1.202 2.551-2.183.625-.977.942-2.089.942-3.303-.001-2.28-1.063-3.936-3.16-4.937zm-3.121-2.735c-.22.406-.527.673-.937.815-.483.167-1.2.252-2.133.252h-3.11v-3.987h2.69c1.371 0 2.387.148 3.021.441.317.147.738.459.738 1.478.001.369-.084.689-.269 1.001zm-6.18 5.09h3.61c1.281 0 2.238.197 2.844.586.533.342.793.898.793 1.698 0 1.015-.363 2.366-3.502 2.366h-3.746v-4.65z" fill="#ffea92"/><path d="m204.773 147.438c-.858-.75-1.829-1.27-2.884-1.543-1.016-.263-2.243-.397-3.646-.397h-5.236c-1.018 0-1.787.252-2.284.749s-.749 1.265-.749 2.284v14.543c0 .7.062 1.261.19 1.717.153.545.483.972.98 1.269.464.277 1.1.412 1.943.412h5.236c.937 0 1.794-.061 2.546-.183.773-.125 1.507-.344 2.182-.653.68-.311 1.316-.73 1.894-1.249.719-.662 1.317-1.423 1.778-2.263.457-.834.8-1.781 1.019-2.815.214-1.016.323-2.153.323-3.378 0-3.765-1.109-6.624-3.292-8.493zm-9.641 2.379h2.081c1.164 0 2.163.126 2.971.374.735.225 1.345.752 1.865 1.611.533.879.804 2.259.804 4.102 0 2.589-.61 4.418-1.822 5.443-.242.212-.535.381-.87.5-.36.128-.71.209-1.04.24-.359.034-.869.051-1.515.051h-2.474z" fill="#ffea92"/><path d="m94.087 40.829-1.744.468c-2.275.609-3.581 3.116-2.915 5.598l-11.179 2.995c-2.852.764-4.544 3.695-3.78 6.547l.123.459c.764 2.852 3.695 4.544 6.547 3.78l11.178-2.995c.665 2.482 3.049 4 5.324 3.39l38.855-10.411z" fill="#ffea92"/><path d="m88.884 82.956h.015c-1.199-9.318-8.432-14.419-10.284-15.583-.132-.083-.282-.124-.432-.124s-.3.041-.432.124c-1.852 1.164-9.085 6.265-10.284 15.583h.015c-.086.532-.146 1.072-.146 1.628 0 5.821 4.857 10.54 10.847 10.54s10.847-4.719 10.847-10.54c0-.556-.06-1.096-.146-1.628z" fill="#ffea92"/><path d="m74.093 76.73c-.163-.068-.351.003-.428.162-.556 1.139-2.551 5.528-2.239 9.229s.002.033.008.092c0 .003.001.006.001.009.004.041.009.092.017.154.02.174.045.346.076.515.172.984.614 2.623 1.689 3.154 0 0 .001.001.002.001.388.223.853.317 1.328.232 1.069-.192 1.78-1.215 1.588-2.284-.098-.548-.416-1.001-.845-1.287v-.001s-.001-.001-.003-.001c-2.128-1.459-2.086-4.608-2.07-5.042.09-1.17.385-2.6.998-4.35l.06-.149c.068-.171-.013-.364-.182-.434z" fill="#e0ebfc"/><path d="m181.095 52.839-7.69 2.061c-2.275.61-4.614-.741-5.224-3.016l-9.935-37.077c-.61-2.275.741-4.614 3.016-5.224l7.69-2.061c2.275-.61 4.614.741 5.224 3.016l9.935 37.077c.61 2.276-.74 4.614-3.016 5.224z" fill="#4671c6"/><path d="m210.936 33.657-28.517 7.641-6.55-24.443 28.517-7.641c6.75-1.809 13.688 2.197 15.497 8.947 1.809 6.75-2.197 13.688-8.947 15.496z" fill="#4671c6"/><g fill="#3762cc"><path d="m197.16 193.875h-37.016c-2.125 0-4.111-1.141-5.183-2.977l-18.472-31.667c-1.088-1.864-1.088-4.181 0-6.046l18.472-31.666c1.071-1.836 3.057-2.977 5.183-2.977h37.016c2.126 0 4.112 1.141 5.183 2.977l18.472 31.666c1.087 1.865 1.087 4.182 0 6.046l-18.472 31.667c-1.072 1.837-3.058 2.977-5.183 2.977zm-37.016-71.332c-.708 0-1.371.38-1.728.993l-18.472 31.666c-.363.622-.363 1.394 0 2.015l18.472 31.667c.357.612 1.019.992 1.728.992h37.016c.708 0 1.371-.38 1.728-.992l18.472-31.667c.362-.621.362-1.394 0-2.016l-18.472-31.666c-.357-.612-1.019-.993-1.728-.993h-37.016z"/><path d="m112.623 250.624h-68.889c-5.542 0-10.052-4.35-10.052-9.697v-92.01c0-11.66 4.741-22.62 13.35-30.863.373-.356.884-.571 1.399-.571h59.494c.515 0 1.01.199 1.382.554 8.626 8.247 13.376 19.217 13.375 30.892l-.008 91.999c0 5.346-4.509 9.696-10.051 9.696zm-63.378-129.141c-7.463 7.417-11.563 17.129-11.563 27.434v92.01c0 3.142 2.715 5.697 6.052 5.697h68.889c3.336 0 6.051-2.556 6.052-5.697l.008-91.999c.001-10.313-4.102-20.028-11.57-27.446h-57.868z"/><path d="m107.925 121.483h-59.493c-1.104 0-2-.896-2-2v-17.105c0-2.989 2.502-5.421 5.579-5.421h52.336c3.076 0 5.579 2.432 5.579 5.421v17.105c-.001 1.104-.896 2-2.001 2zm-57.493-4h55.494v-15.105c0-.784-.708-1.421-1.579-1.421h-52.337c-.871 0-1.579.637-1.579 1.421v15.105z"/><path d="m108.748 242.624h-61.138c-3.309 0-6-2.691-6-6v-89.333c0-2.206 1.794-4 4-4h65.146c2.206 0 4 1.794 4 4l-.008 89.333c0 .531-.211 1.039-.586 1.414l-4 4c-.375.375-.884.586-1.414.586zm2.007-95.333h-65.145v89.333c0 1.103.897 2 2 2h60.309l2.829-2.829z"/><path d="m137.042 159.209h-9c-1.657 0-3-1.343-3-3s1.343-3 3-3h9c1.657 0 3 1.343 3 3s-1.344 3-3 3z"/><path d="m118.869 159.209h-9.172c-1.657 0-3-1.343-3-3s1.343-3 3-3h9.172c1.657 0 3 1.343 3 3s-1.343 3-3 3z"/><path d="m100.524 159.209h-9c-1.657 0-3-1.343-3-3s1.343-3 3-3h9c1.657 0 3 1.343 3 3s-1.343 3-3 3z"/><path d="m172.303 57.045c-2.766 0-5.304-1.848-6.053-4.644l-9.935-37.077c-.895-3.336 1.093-6.778 4.429-7.673l7.691-2.061c1.617-.433 3.305-.211 4.754.626s2.486 2.188 2.919 3.804l9.935 37.077c.433 1.616.211 3.305-.626 4.754s-2.188 2.486-3.804 2.918l-7.69 2.061c-.541.146-1.085.215-1.62.215zm-2.243-47.669c-.196 0-.395.026-.589.078l-7.69 2.06c-1.206.324-1.925 1.568-1.602 2.774l9.935 37.077c.323 1.206 1.567 1.923 2.774 1.602l7.69-2.061c.584-.156 1.073-.531 1.375-1.055s.383-1.134.226-1.719l-9.935-37.077c-.157-.584-.531-1.073-1.055-1.375-.349-.201-.736-.304-1.129-.304z"/><path d="m182.418 43.299c-.348 0-.693-.091-1-.268-.459-.265-.794-.702-.932-1.214l-6.549-24.444c-.286-1.067.347-2.164 1.414-2.449l28.517-7.641c3.781-1.014 7.729-.493 11.119 1.464 3.389 1.957 5.814 5.117 6.827 8.897 2.091 7.804-2.557 15.854-10.361 17.946l-28.518 7.641c-.169.045-.343.068-.517.068zm-4.1-25.03 5.514 20.58 26.586-7.123c5.674-1.521 9.053-7.374 7.533-13.047-.737-2.749-2.5-5.046-4.964-6.469s-5.334-1.8-8.083-1.064zm32.618 15.389h.01z"/><path d="m96.627 63.205c-2.182 0-4.251-1.207-5.444-3.15l-9.526 2.552c-1.896.509-3.875.247-5.574-.733-1.699-.981-2.915-2.565-3.422-4.46l-.123-.458c-1.049-3.913 1.281-7.948 5.194-8.997l9.523-2.552c.026-1.024.28-2.027.753-2.937.813-1.561 2.168-2.663 3.817-3.105l68.112-18.25c1.064-.29 2.164.347 2.449 1.414l5.299 19.774c.138.512.065 1.058-.2 1.518s-.702.794-1.214.932l-68.112 18.25c-.511.137-1.024.202-1.532.202zm-4.31-7.524c.348 0 .693.091 1 .268.459.265.794.702.932 1.214.379 1.413 1.667 2.3 2.875 1.976l66.18-17.732-4.263-15.911-66.181 17.733c-.553.148-1.016.535-1.304 1.089-.319.612-.389 1.344-.197 2.06.286 1.067-.347 2.164-1.414 2.449l-11.178 2.995c-.863.231-1.584.785-2.031 1.559s-.565 1.675-.334 2.539l.123.458c.231.864.785 1.585 1.559 2.032.772.447 1.674.565 2.539.334l11.177-2.995c.17-.046.344-.068.517-.068z"/><path d="m181.681 40.553c-.883 0-1.691-.589-1.93-1.483l-5.298-19.774c-.046-.173-.069-.347-.069-.518 0-.884.589-1.692 1.483-1.932 1.064-.289 2.164.347 2.449 1.414l5.298 19.774c.046.173.069.347.069.518 0 .884-.589 1.692-1.483 1.932-.173.047-.347.069-.519.069z"/></g><path d="m109.183 112.22h-62c-1.657 0-3-1.343-3-3s1.343-3 3-3h62c1.657 0 3 1.343 3 3s-1.343 3-3 3z" fill="#e0ebfc"/><path d="m109.183 114.22h-62c-2.757 0-5-2.243-5-5s2.243-5 5-5h62c2.757 0 5 2.243 5 5s-2.244 5-5 5zm-62-6c-.551 0-1 .449-1 1s.449 1 1 1h62c.551 0 1-.449 1-1s-.449-1-1-1z" fill="#3762cc"/><path d="m93.572 203.516c4.611-.787 8.939-2.835 12.604-5.979.331-.284.227-.819-.183-.965-4.551-1.611-9.325-1.961-13.908-1.033-2.314.395-4.557 1.108-6.68 2.117 2.706-1.433 5.171-3.272 7.305-5.469 3.593-3.491 6.237-7.861 7.692-12.737.126-.423-.27-.819-.693-.693-4.876 1.455-9.246 4.099-12.737 7.692-1.763 1.714-3.297 3.64-4.575 5.733 1.07-3.563 1.589-7.247 1.532-10.952.101-6.592-1.618-13.119-5.029-19.01-.306-.529-1.075-.529-1.381 0-3.41 5.891-5.129 12.418-5.029 19.01-.058 3.778.485 7.533 1.599 11.161-1.303-2.174-2.88-4.172-4.702-5.943-3.491-3.593-7.861-6.237-12.737-7.692-.423-.126-.819.27-.693.693 1.454 4.876 4.099 9.246 7.692 12.737 2.135 2.197 4.599 4.036 7.305 5.469-2.124-1.009-4.366-1.722-6.68-2.117-4.583-.927-9.358-.577-13.908 1.033-.411.146-.514.681-.183.965 3.665 3.144 7.994 5.192 12.604 5.979 2.751.557 5.571.65 8.37.289-1.478.193-2.925.555-4.318 1.087-3.293 1.142-6.225 3.177-8.535 5.936-.209.25-.071.629.25.686 3.543.629 7.097.303 10.354-.939 2.701-.937 5.158-2.474 7.229-4.519l.98-.697-1.301 15.365c-.055.647.456 1.203 1.105 1.203h1.289 1.289c.65 0 1.16-.556 1.105-1.203l-1.298-15.327.886.659h.002c2.071 2.045 4.528 3.583 7.229 4.519 3.257 1.242 6.811 1.568 10.354.939.321-.057.459-.436.25-.686-2.31-2.759-5.242-4.794-8.535-5.936-1.415-.54-2.886-.899-4.388-1.089l-.002-.009c2.83.377 5.685.287 8.47-.277z" fill="#6bdddd"/></svg>