<?xml version="1.0" encoding="iso-8859-1"?>
<!-- Generator: Adobe Illustrator 21.0.0, SVG Export Plug-In . SVG Version: 6.00 Build 0)  -->
<svg xmlns="http://www.w3.org/2000/svg" xmlns:xlink="http://www.w3.org/1999/xlink" version="1.1" id="Capa_1" x="0px" y="0px" viewBox="0 0 511.611 511.611" style="enable-background:new 0 0 511.611 511.611;" xml:space="preserve" width="512" height="512">
<g>
	<path style="fill:#78777E;" d="M307.524,448.145L307.524,448.145c-12.48,0-22.596-10.117-22.596-22.597v-40.317   c-9.494,1.461-19.219,2.22-29.122,2.22c-9.903,0-19.628-0.76-29.122-2.22v40.317c0,12.48-10.117,22.597-22.596,22.597l0,0   c-35.035,0-66.064,22.615-76.79,55.967v0h257.018v0C373.588,470.759,342.559,448.145,307.524,448.145z"/>
	<circle style="fill:#E0E0E0;" cx="255.806" cy="197.476" r="189.976"/>
	<path style="fill:#67676B;" d="M226.684,385.231v27c9.494,1.46,19.219,2.221,29.122,2.221c9.903,0,19.628-0.76,29.122-2.221v-27   c-9.494,1.46-19.219,2.221-29.122,2.221C245.903,387.452,236.178,386.691,226.684,385.231z"/>
	<path style="fill:#C4C4C4;" d="M255.806,360.452c-100.381,0-182.567-77.857-189.493-176.476c-0.313,4.46-0.483,8.96-0.483,13.5   c0,104.921,85.055,189.976,189.976,189.976s189.976-85.055,189.976-189.976c0-4.54-0.17-9.04-0.483-13.5   C438.373,282.595,356.187,360.452,255.806,360.452z"/>
	<circle style="fill:#FFDB56;" cx="255.806" cy="197.476" r="29.501"/>
	<path style="fill:#FFC41F;" d="M255.806,199.976c-11.426,0-21.328-6.5-26.228-16.001c-2.087,4.046-3.273,8.633-3.273,13.5   c0,16.293,13.208,29.501,29.501,29.501s29.501-13.208,29.501-29.501c0-4.867-1.186-9.454-3.273-13.5   C277.133,193.476,267.232,199.976,255.806,199.976z"/>
	<path style="fill:#66BAEA;" d="M406.666,221.02c-11.628-44.802-57.611-71.29-102.092-59.065   c-10.641,2.924-20.215,7.805-28.459,14.136c5.658,5.375,9.191,12.965,9.191,21.385c0,2.513-0.316,4.952-0.908,7.282   c15.412,7.745,27.613,21.724,32.544,39.667c3.817,13.888,2.682,27.964-2.332,40.356c-8.566,21.167,10.977,42.903,33.053,37.066   c0.396-0.105,0.792-0.212,1.188-0.323C392.08,309.418,417.944,264.473,406.666,221.02z"/>
	<path style="fill:#3AAAE4;" d="M406.666,221.02c-10.803-41.622-51.256-67.415-92.611-61.069   c31.653,4.866,59.022,27.953,67.617,61.069c10.872,41.889-12.779,85.153-53.223,99.059c5.632,2.718,12.298,3.596,19.214,1.768   c0.396-0.105,0.792-0.212,1.188-0.323C392.08,309.418,417.944,264.473,406.666,221.02z"/>
	<path style="fill:#66BAEA;" d="M332.283,64.184c-0.256-0.319-0.516-0.637-0.778-0.954c-28.617-34.589-80.192-39.973-115.322-12.022   c-36.22,28.819-41.753,81.596-12.519,117.281c6.88,8.399,15.068,15.093,24.028,20.034c3.323-10.443,12.301-18.359,23.337-20.157   c1.113-16.816,8.91-33.145,22.977-44.669c11.142-9.127,24.466-13.807,37.826-14.256C334.654,108.673,346.581,81.988,332.283,64.184   z"/>
	<path style="fill:#3AAAE4;" d="M332.283,64.184c-0.256-0.319-0.516-0.637-0.778-0.954c-4.561-5.513-9.71-10.276-15.278-14.288   c11.108,17.673-0.722,41.771-22.395,42.499c-13.361,0.449-26.685,5.129-37.826,14.256c-12.913,10.578-32.276,43.529-24.926,75.7   c4.436-6.807,11.601-11.672,19.949-13.032c1.113-16.816,8.91-33.145,22.977-44.669c11.142-9.128,24.466-13.807,37.826-14.256   C334.654,108.673,346.581,81.988,332.283,64.184z"/>
	<path style="fill:#66BAEA;" d="M255.806,226.976c-9.795,0-18.471-4.778-23.836-12.126c-15.885,6.181-34.202,5.959-50.712-2.146   c-12.929-6.347-22.718-16.526-28.673-28.494c-10.172-20.444-39.401-20.216-49.662,0.184c-0.184,0.366-0.366,0.734-0.545,1.104   c-19.587,40.394-3.074,89.55,36.939,109.905c41.256,20.987,91.566,4.111,111.894-37.3c4.971-10.126,7.663-20.771,8.314-31.368   C258.305,226.888,257.066,226.976,255.806,226.976z"/>
	<path style="fill:#3AAAE4;" d="M253.143,226.844c-0.604,1.428-1.241,2.849-1.933,4.259c-20.328,41.41-70.638,58.287-111.894,37.3   c-24.294-12.358-39.903-35.338-44.051-60.524c-5.771,34.732,11.22,70.822,44.051,87.524c41.256,20.987,91.566,4.111,111.894-37.3   c4.971-10.126,7.663-20.771,8.314-31.368c-1.219,0.154-2.458,0.241-3.718,0.241C254.907,226.976,254.021,226.923,253.143,226.844z"/>
	<g>
		<path d="M255.806,0C146.917,0,58.33,88.587,58.33,197.476c0,96.377,69.404,176.836,160.854,194.057v34.015    c0,8.324-6.772,15.097-15.097,15.097c-38.434,0-72.162,24.583-83.93,61.171c-0.734,2.281-0.333,4.776,1.078,6.713    c1.412,1.938,3.665,3.083,6.062,3.083h38.537c4.143,0,7.5-3.357,7.5-7.5c0-4.142-3.357-7.5-7.5-7.5h-27.458    c12.134-24.873,37.383-40.967,65.711-40.967c16.596,0,30.097-13.501,30.097-30.097v-31.786c14.363,1.572,28.88,1.576,43.244,0.014    v31.771c0,16.596,13.501,30.097,30.097,30.097c28.328,0,53.577,16.094,65.711,40.967H195.834c-4.143,0-7.5,3.358-7.5,7.5    c0,4.143,3.357,7.5,7.5,7.5h188.48c2.396,0,4.649-1.146,6.061-3.083c1.411-1.936,1.813-4.432,1.078-6.713    c-11.767-36.588-45.496-61.171-83.93-61.171c-8.324,0-15.097-6.772-15.097-15.097v-33.985    c27.116-5.077,52.86-15.797,75.826-31.733c3.403-2.361,4.248-7.035,1.887-10.438c-2.361-3.401-7.033-4.248-10.438-1.887    c-30.59,21.227-66.517,32.446-103.898,32.446c-100.617,0-182.476-81.858-182.476-182.476S155.188,15,255.806,15    s182.476,81.858,182.476,182.476c0,50.225-19.979,97.025-56.258,131.782c-2.991,2.866-3.093,7.613-0.228,10.604    c2.866,2.989,7.614,3.094,10.605,0.228c39.26-37.613,60.881-88.262,60.881-142.614C453.281,88.587,364.694,0,255.806,0z"/>
		<path d="M313.879,318.241c6.866,7.791,16.519,12.054,26.543,12.054c3.039,0,6.113-0.392,9.152-1.196    c0.438-0.114,0.873-0.233,1.299-0.353c47.035-13.172,75.32-62.343,63.053-109.611c-6.126-23.599-21.113-43.311-42.202-55.508    c-21.092-12.197-45.645-15.359-69.138-8.904c-9.413,2.587-18.205,6.628-26.232,12c-4.875-3.268-10.564-5.409-16.695-6.047    c2.622-12.222,9.227-23.091,19.099-31.178c9.528-7.806,21.052-12.149,33.325-12.562c13.315-0.448,25.049-8.271,30.623-20.416    c5.645-12.299,3.892-26.489-4.579-37.037c-0.281-0.35-0.566-0.698-0.845-1.035c-31.136-37.634-87.557-43.514-125.769-13.109    c-9.181,7.305-16.732,16.142-22.447,26.267c-2.036,3.607-0.763,8.182,2.845,10.218c3.605,2.036,8.183,0.763,10.218-2.845    c4.762-8.436,11.062-15.805,18.725-21.901c31.861-25.354,78.907-20.449,104.881,10.943c0.238,0.286,0.472,0.574,0.701,0.859    c4.962,6.179,5.948,14.173,2.639,21.384c-3.238,7.055-9.777,11.422-17.494,11.681c-15.593,0.524-30.229,6.04-42.327,15.95    c-13.619,11.158-22.564,27.138-25.1,44.471c-8.169,2.718-15.077,8.208-19.609,15.354c-5.611-3.927-10.669-8.602-15.078-13.984    c-13.442-16.408-19.355-37.859-16.223-58.854c0.611-4.097-2.214-7.913-6.311-8.524c-4.086-0.608-7.913,2.214-8.524,6.312    c-3.756,25.173,3.335,50.896,19.455,70.573c6.119,7.47,13.285,13.807,21.329,18.928c-0.25,1.734-0.386,3.504-0.386,5.307    c0,4.516,0.816,8.843,2.304,12.848c-12.244,2.705-25.183,1.228-36.545-4.351c-11.058-5.429-19.794-14.109-25.264-25.103    c-5.934-11.928-17.923-19.355-31.285-19.384c-0.027,0-0.053,0-0.08,0c-13.5,0-25.647,7.482-31.714,19.54    c-0.199,0.396-0.396,0.795-0.592,1.199c-21.312,43.95-3.239,97.72,40.287,119.861c12.898,6.562,26.841,9.878,40.876,9.878    c9.611,0,19.266-1.555,28.658-4.688c23.114-7.709,41.756-23.999,52.492-45.87c4.435-9.034,7.274-18.6,8.513-28.5    c9.206-2.772,16.906-9.04,21.56-17.256c10.515,7.387,18.257,18.247,21.695,30.76c3.264,11.877,2.554,24.172-2.053,35.556    C302.66,294.316,305.044,308.216,313.879,318.241z M200.704,293.048c-19.27,6.428-39.862,4.891-57.987-4.33    c-36.293-18.463-51.362-63.299-33.593-99.944c0.164-0.339,0.331-0.676,0.498-1.009c3.554-7.065,10.396-11.278,18.312-11.278    c0.016,0,0.032,0,0.049,0c7.761,0.017,14.448,4.153,17.888,11.066c6.95,13.968,18.044,24.993,32.083,31.886    c16.063,7.885,34.604,9.306,51.65,4.135c5.664,5.687,13.163,9.536,21.521,10.597c-1.201,7.139-3.419,14.051-6.647,20.628    C235.524,273.035,219.979,286.619,200.704,293.048z M255.806,219.477c-12.132,0-22.001-9.869-22.001-22.001    c0-10.993,8.104-20.129,18.652-21.747c0.003-0.001,0.006-0.001,0.008-0.001c1.09-0.167,2.205-0.253,3.341-0.253    c12.132,0,22.001,9.869,22.001,22.001S267.937,219.477,255.806,219.477z M292.651,200.787c0.097-1.092,0.156-2.195,0.156-3.311    c0-7.283-2.124-14.075-5.771-19.806c6.046-3.726,12.583-6.575,19.525-8.483c19.589-5.382,40.064-2.747,57.654,7.426    c17.585,10.17,30.083,26.609,35.191,46.291c10.229,39.414-13.357,80.415-52.588,91.4c-0.355,0.101-0.711,0.196-1.072,0.292    c-7.662,2.025-15.368-0.318-20.613-6.272c-5.132-5.823-6.467-13.572-3.57-20.729c5.853-14.463,6.756-30.078,2.611-45.157    C319.384,225.007,308.023,210.108,292.651,200.787z"/>
		<path d="M305.839,476.882c0-6.933-5.641-12.573-12.573-12.573c-6.934,0-12.574,5.641-12.574,12.573    c0,6.934,5.641,12.574,12.574,12.574C300.198,489.456,305.839,483.815,305.839,476.882z"/>
		<path d="M268.379,476.882c0-6.933-5.641-12.573-12.573-12.573s-12.573,5.641-12.573,12.573c0,6.934,5.641,12.574,12.573,12.574    S268.379,483.815,268.379,476.882z"/>
		<path d="M230.92,476.882c0-6.933-5.641-12.573-12.574-12.573c-6.933,0-12.573,5.641-12.573,12.573    c0,6.934,5.641,12.574,12.573,12.574C225.279,489.456,230.92,483.815,230.92,476.882z"/>
	</g>
</g>















</svg>
