<svg id="Layer_1" enable-background="new 0 0 256 256" height="512" viewBox="0 0 256 256" width="512" xmlns="http://www.w3.org/2000/svg"><path d="m240.708 237.364c-7.99 0-15.161-5.496-16.967-13.732-.108-.492-.178-.994-.239-1.494l-9.185-74.949c-1.601-13.06-12.652-22.882-25.792-22.966.209.008.416.023.626.029v113.164h56.311v-.052z" fill="#4671c6"/><path d="m189.151 237.416v-113.164c-.266-.008-.527-.037-.795-.037-11.886 0-22.277 8.014-25.297 19.51l-9.249 35.207c-.18.685-.368 1.369-.625 2.028-2.43 6.219-8.225 10.124-14.555 10.316l-2.106.064v46.077h52.627z" fill="#6bdddd"/><path d="m136.523 237.416v-46.077l-1.209.036c-4.28.13-8.436-1.45-11.548-4.39-2.993-2.827-4.993-6.546-5.702-10.601l-10.494-60.025c-1.045-5.978-2.618-11.852-4.701-17.552-4.125-11.289-14.864-18.799-26.975-18.799v157.408z" fill="#ffea92"/><path d="m75.893 237.416v-157.408h-.484c-10.862 0-20.723 6.341-25.229 16.224l-.238.522c-4.001 8.775-6.528 18.15-7.478 27.747l-7.024 70.943c-1.334 13.478-7.381 26.053-17.076 35.512l-6.568 6.407v.052h64.097z" fill="#f9a7a7"/><g fill="#3762cc"><path d="m18.111 66.217h-12.631c-1.104 0-2-.896-2-2s.896-2 2-2h12.631c1.104 0 2 .896 2 2s-.895 2-2 2z"/><path d="m18.111 108.319h-12.631c-1.104 0-2-.896-2-2s.896-2 2-2h12.631c1.104 0 2 .896 2 2s-.895 2-2 2z"/><path d="m18.111 150.421h-12.631c-1.104 0-2-.896-2-2s.896-2 2-2h12.631c1.104 0 2 .896 2 2s-.895 2-2 2z"/><path d="m18.111 192.523h-12.631c-1.104 0-2-.896-2-2s.896-2 2-2h12.631c1.104 0 2 .896 2 2s-.895 2-2 2z"/><path d="m250.52 239.416h-238.724c-1.104 0-2-.896-2-2v-201.916c0-1.104.896-2 2-2s2 .896 2 2v199.916h236.724c1.104 0 2 .896 2 2s-.896 2-2 2z"/><path d="m245.462 239.416h-233.666c-1.104 0-2-.896-2-2 0-.539.218-1.107.604-1.484l6.567-6.407c9.342-9.115 15.196-21.288 16.482-34.277l7.023-70.942c.974-9.835 3.547-19.384 7.649-28.38l.238-.523c4.818-10.567 15.436-17.395 27.049-17.395h.484c12.863 0 24.459 8.083 28.854 20.113 2.116 5.796 3.729 11.816 4.792 17.894l10.493 60.025c.631 3.607 2.444 6.978 5.105 9.492 2.747 2.594 6.329 3.955 10.115 3.846l3.314-.101c5.667-.171 10.673-3.722 12.754-9.044.221-.565.388-1.178.553-1.808l9.249-35.207c3.249-12.365 14.447-21.001 27.231-21.001 14.205 0 26.22 10.632 27.947 24.731l9.185 74.949c.053.43.114.886.207 1.307 1.57 7.162 7.744 12.162 15.014 12.162h4.754c1.104 0 2 .896 2 2s-.893 2.05-1.997 2.05zm-233.666-2.052h.01zm4.86-1.948h212.309c-3.549-2.713-6.149-6.667-7.177-11.356-.128-.581-.206-1.149-.271-1.678l-9.185-74.95c-1.482-12.096-11.79-21.217-23.977-21.217-10.968 0-20.575 7.409-23.362 18.018l-9.249 35.207c-.188.718-.398 1.484-.697 2.249-2.665 6.818-9.086 11.366-16.357 11.586l-3.314.101c-4.831.143-9.457-1.605-12.982-4.936-3.284-3.102-5.521-7.261-6.299-11.711l-10.493-60.025c-1.023-5.845-2.574-11.636-4.61-17.21-3.821-10.458-13.907-17.485-25.097-17.485h-.484c-10.051 0-19.239 5.909-23.41 15.054l-.238.523c-3.919 8.595-6.377 17.717-7.308 27.115l-7.023 70.942c-1.379 13.925-7.654 26.975-17.67 36.746z"/></g><circle cx="128.629" cy="50.471" fill="#a4c9ff" r="31.887"/><path d="m149.481 32.965c-.246-1.335-.996-2.493-2.111-3.26-.85-.585-1.844-.895-2.873-.895-1.674 0-3.239.822-4.186 2.198l-19.348 28.102-7.026-9.096c-.969-1.254-2.434-1.973-4.02-1.973-1.131 0-2.203.366-3.1 1.059-1.072.828-1.758 2.025-1.931 3.371-.173 1.345.188 2.677 1.018 3.749l9.119 11.805c1.438 1.864 3.704 2.976 6.059 2.976h.008l.198-.003c2.436-.066 4.714-1.303 6.095-3.31l21.289-30.922c.768-1.117 1.056-2.466.809-3.801z" fill="#e0ebfc"/></svg>