<svg height="512pt" viewBox="-129 0 512 512" width="512pt" xmlns="http://www.w3.org/2000/svg"><path d="m226.949219 57.140625h-134.519531c-13.703126 0-24.816407-11.113281-24.816407-24.816406 0-13.707031 11.113281-24.816407 24.816407-24.816407h104.34375c6.21875 0 12.113281 2.761719 16.089843 7.542969l21.628907 26c5.320312 6.394531.773437 16.089844-7.542969 16.089844zm0 0" fill="#567c8e"/><path d="m104.503906 57.140625h45.054688v45.054687h-45.054688zm0 0" fill="#d2e7fa"/><path d="m104.503906 57.140625h45.054688v18.546875h-45.054688zm0 0" fill="#9dc8ff"/><path d="m214.085938 504.492188h-174.109376c-17.933593 0-32.46875-14.535157-32.46875-32.46875v-249.71875c0-38.539063 31.238282-69.777344 69.773438-69.777344h99.496094c38.539062 0 69.777344 31.238281 69.777344 69.777344v249.71875c0 17.933593-14.535157 32.46875-32.46875 32.46875zm0 0" fill="#7de7e7"/><path d="m246.554688 222.300781v249.71875c0 17.933594-14.539063 32.472657-32.472657 32.472657h-174.105469c-16.21875 0-29.660156-11.886719-32.082031-27.429688 4.863281 3.164062 10.667969 4.996094 16.890625 4.996094h166.421875c17.140625 0 31.03125-13.890625 31.03125-31.03125v-238.683594c0-25.726562-14.570312-48.054688-35.90625-59.171875 34.015625 4.664063 60.222657 33.835937 60.222657 69.128906zm0 0" fill="#4cc9c6"/><path d="m178.261719 152.527344h-102.460938v-37.480469c0-7.097656 5.75-12.851563 12.847657-12.851563h76.761718c7.097656 0 12.851563 5.753907 12.851563 12.851563zm0 0" fill="#567c8e"/><path d="m178.257812 115.046875v37.476563h-28.703124v-37.476563c0-7.097656-5.753907-12.851563-12.847657-12.851563h28.699219c7.105469 0 12.851562 5.753907 12.851562 12.851563zm0 0" fill="#3d6372"/><path d="m187.535156 458.1875h-121.011718c-9.742188 0-17.636719-7.898438-17.636719-17.636719v-201.234375c0-22.359375 18.125-40.484375 40.480469-40.484375h75.324218c22.359375 0 40.484375 18.125 40.484375 40.484375v201.234375c0 9.738281-7.898437 17.636719-17.640625 17.636719zm0 0" fill="#f1c600"/><path d="m205.175781 239.3125v201.234375c0 9.738281-7.894531 17.644531-17.644531 17.644531h-28.847656c9.734375 0 17.640625-7.90625 17.640625-17.644531v-201.234375c0-22.355469-18.132813-40.476562-40.488281-40.476562h28.851562c22.367188 0 40.488281 18.121093 40.488281 40.476562zm0 0" fill="#efa628"/><path d="m185.765625 145.558594v-30.511719c0-11.226563-9.128906-20.359375-20.355469-20.359375h-8.347656v-30.042969h16.335938c4.144531 0 7.503906-3.359375 7.503906-7.503906s-3.359375-7.503906-7.503906-7.503906h-80.96875c-9.546876 0-17.3125-7.765625-17.3125-17.3125s7.765624-17.3125 17.3125-17.3125h104.34375c4 0 7.761718 1.761719 10.320312 4.839843l21.628906 26c.773438.933594.597656 1.851563.316406 2.457032-.285156.605468-.878906 1.328125-2.089843 1.328125h-19.359375c-4.148438 0-7.503906 3.359375-7.503906 7.503906s3.359374 7.503906 7.503906 7.503906h19.359375c6.789062 0 12.796875-3.816406 15.679687-9.964843 2.882813-6.148438 1.976563-13.207032-2.367187-18.425782l-21.628907-26.003906c-5.417968-6.515625-13.382812-10.25-21.859374-10.25h-104.34375c-17.820313 0-32.320313 14.5-32.320313 32.324219 0 17.820312 14.5 32.320312 32.320313 32.320312h4.566406v30.042969h-8.347656c-11.222657 0-20.355469 9.132812-20.355469 20.359375v30.511719c-38.390625 4.46875-68.292969 37.171875-68.292969 76.746094v249.71875c0 22.042968 17.933594 39.976562 39.976562 39.976562h174.109376c22.042968 0 39.972656-17.933594 39.972656-39.976562v-249.71875c0-39.574219-29.898438-72.273438-68.292969-76.746094zm-73.757813-80.914063h30.042969v30.042969h-30.042969zm-28.703124 50.402344c0-2.949219 2.398437-5.347656 5.34375-5.347656h76.761718c2.949219 0 5.347656 2.398437 5.347656 5.347656v29.972656h-87.453124zm155.746093 356.976563c0 13.765624-11.199219 24.964843-24.964843 24.964843h-174.109376c-13.765624 0-24.964843-11.199219-24.964843-24.964843v-249.71875c0-34.339844 27.933593-62.273438 62.269531-62.273438h99.496094c34.335937 0 62.273437 27.933594 62.273437 62.273438zm0 0"/><path d="m164.691406 191.328125h-75.324218c-26.460938 0-47.988282 21.527344-47.988282 47.988281v42.371094c0 4.144531 3.359375 7.503906 7.507813 7.503906 4.144531 0 7.503906-3.359375 7.503906-7.503906v-42.371094c0-18.183594 14.792969-32.976562 32.976563-32.976562h75.324218c18.183594 0 32.976563 14.792968 32.976563 32.976562v201.234375c0 5.585938-4.542969 10.132813-10.132813 10.132813h-121.011718c-5.585938 0-10.132813-4.546875-10.132813-10.132813v-124.007812c0-4.144531-3.359375-7.503907-7.503906-7.503907s-7.503907 3.359376-7.503907 7.503907v124.007812c0 13.863281 11.277344 25.140625 25.140626 25.140625h121.015624c13.863282 0 25.140626-11.277344 25.140626-25.140625v-201.234375c0-26.460937-21.527344-47.988281-47.988282-47.988281zm0 0"/></svg>