<svg id="Layer_1" enable-background="new 0 0 256 256" height="512" viewBox="0 0 256 256" width="512" xmlns="http://www.w3.org/2000/svg"><circle cx="128" cy="128" fill="#f9a7a7" r="120"/><circle cx="128" cy="128" fill="#a4c9ff" r="95"/><path d="m128 250c-67.271 0-122-54.729-122-122s54.729-122 122-122 122 54.729 122 122-54.729 122-122 122zm0-240c-65.065 0-118 52.935-118 118s52.935 118 118 118 118-52.935 118-118-52.935-118-118-118z" fill="#3762cc"/><path d="m185.721 52.601-133.12 133.12c5.093 6.637 11.04 12.584 17.678 17.678l133.12-133.12c-5.093-6.637-11.041-12.584-17.678-17.678z" fill="#f9a7a7"/><path d="m52.993 182.913c-15.709-21.399-22.503-49.731-14.825-79.481 7.317-28.348 36.913-57.945 65.261-65.263 29.751-7.68 58.084-.886 79.484 14.824.8.587 1.901.515 2.603-.186.861-.861.77-2.297-.211-3.018-16.835-12.369-37.788-19.445-60.388-18.74-50.92 1.588-92.279 42.946-93.868 93.866-.706 22.601 6.371 43.555 18.74 60.39.721.981 2.157 1.072 3.018.211.701-.701.773-1.803.186-2.603z" fill="#3762cc"/><path d="m203.194 70.484c-.701.701-.773 1.803-.186 2.603 15.709 21.399 22.503 49.731 14.825 79.481-7.317 28.348-36.913 57.945-65.261 65.263-29.751 7.68-58.084.886-79.484-14.824-.8-.587-1.902-.515-2.603.186-.861.861-.77 2.297.211 3.018 16.835 12.369 37.788 19.445 60.388 18.74 50.92-1.588 92.279-42.946 93.868-93.866.706-22.601-6.371-43.555-18.74-60.39-.721-.981-2.157-1.072-3.018-.211z" fill="#3762cc"/><path d="m90.912 133.762h-31.86c-1.881 0-3.366.456-4.415 1.355-1.094.938-1.649 2.215-1.649 3.797 0 1.526.531 2.781 1.578 3.728 1.017.922 2.526 1.39 4.485 1.39h9.935v34.945c0 2.298.561 4.071 1.666 5.268 1.125 1.222 2.593 1.841 4.363 1.841 1.746 0 3.197-.614 4.313-1.824 1.094-1.187 1.648-2.965 1.648-5.285v-34.945h9.935c1.953 0 3.47-.465 4.51-1.381 1.075-.948 1.62-2.206 1.62-3.737 0-1.526-.536-2.786-1.594-3.745-1.03-.933-2.555-1.407-4.535-1.407z" fill="#e0ebfc"/><path d="m138.669 132.919c-1.773 0-3.233.623-4.337 1.85-1.077 1.197-1.623 2.955-1.623 5.225v13.176h-19.635v-13.176c0-2.299-.562-4.067-1.669-5.255-1.126-1.208-2.605-1.82-4.393-1.82-1.824 0-3.297.626-4.379 1.859-1.049 1.195-1.582 2.95-1.582 5.216v38.983c0 2.266.538 4.027 1.599 5.234 1.095 1.244 2.562 1.875 4.362 1.875 1.767 0 3.239-.618 4.376-1.836 1.119-1.199 1.686-2.973 1.686-5.272v-15.639h19.635v15.639c0 2.267.538 4.027 1.599 5.233 1.094 1.245 2.561 1.876 4.362 1.876 1.767 0 3.239-.618 4.377-1.837 1.119-1.2 1.686-2.974 1.686-5.272v-38.983c0-2.298-.562-4.066-1.669-5.256-1.128-1.208-2.606-1.82-4.395-1.82z" fill="#e0ebfc"/><path d="m196.068 164.793c-1.045-1.017-2.313-1.532-3.768-1.532-1.716 0-3.005.546-3.831 1.623-.697.907-1.284 2.08-1.733 3.455-.937 2.562-2.333 4.522-4.149 5.825-1.808 1.298-4.07 1.956-6.724 1.956-2.45 0-4.609-.583-6.417-1.734-1.796-1.143-3.211-2.915-4.206-5.266-1.022-2.419-1.541-5.519-1.541-9.213 0-5.505 1.161-9.784 3.45-12.716 2.263-2.898 5.223-4.307 9.051-4.307 2.369 0 4.375.554 5.964 1.647 1.624 1.116 3.067 2.848 4.29 5.146.845 1.595 1.611 2.706 2.34 3.397.831.786 2.033 1.185 3.573 1.185 1.433 0 2.668-.551 3.67-1.638.983-1.064 1.481-2.314 1.481-3.716 0-2.293-.902-4.73-2.682-7.244-1.751-2.473-4.292-4.571-7.55-6.236-3.256-1.663-7.008-2.506-11.154-2.506-3.398 0-6.646.615-9.656 1.828-3.021 1.218-5.691 3.017-7.939 5.346-2.248 2.33-3.996 5.167-5.196 8.432-1.194 3.245-1.8 6.961-1.8 11.045 0 2.513.24 4.922.713 7.159.476 2.251 1.2 4.399 2.153 6.385.953 1.988 2.123 3.814 3.483 5.432 1.524 1.783 3.225 3.244 5.055 4.343 1.827 1.096 3.883 1.913 6.111 2.429 2.203.51 4.674.768 7.347.768 3.561 0 6.736-.583 9.438-1.734 2.703-1.152 4.962-2.678 6.714-4.537 1.74-1.845 3.037-3.762 3.855-5.696.826-1.95 1.244-3.802 1.244-5.503 0-1.512-.533-2.797-1.586-3.823z" fill="#e0ebfc"/><g fill="#3762cc"><path d="m75.015 188.085c-2.319 0-4.336-.86-5.834-2.486-1.456-1.577-2.194-3.806-2.194-6.623v-32.945h-7.935c-2.471 0-4.432-.642-5.829-1.909-1.461-1.321-2.234-3.123-2.234-5.209 0-2.161.812-3.999 2.347-5.315 1.422-1.219 3.345-1.836 5.716-1.836h31.86c2.491 0 4.469.647 5.878 1.925 1.473 1.335 2.251 3.143 2.251 5.227 0 2.101-.794 3.912-2.297 5.237-1.417 1.248-3.378 1.881-5.833 1.881h-7.935v32.945c0 2.838-.732 5.072-2.178 6.64-1.489 1.615-3.489 2.468-5.783 2.468zm-15.964-52.323c-1.389 0-2.437.294-3.113.874-.648.556-.951 1.28-.951 2.278 0 .964.292 1.677.919 2.244.797.722 2.149.874 3.144.874h9.935c1.104 0 2 .896 2 2v34.945c0 1.779.382 3.095 1.135 3.911.743.807 1.688 1.198 2.893 1.198 1.181 0 2.111-.386 2.843-1.18.742-.805 1.119-2.127 1.119-3.929v-34.945c0-1.104.896-2 2-2h9.935c.998 0 2.361-.153 3.188-.881.643-.567.942-1.278.942-2.236 0-.964-.298-1.684-.938-2.264-.811-.734-2.184-.888-3.192-.888h-31.859z"/><path d="m138.669 188.085c-2.367 0-4.395-.884-5.864-2.556-1.391-1.581-2.096-3.786-2.096-6.553v-13.639h-15.635v13.639c0 2.822-.748 5.055-2.224 6.637-1.51 1.618-3.529 2.472-5.839 2.472-2.366 0-4.394-.883-5.864-2.555-1.391-1.583-2.097-3.788-2.097-6.554v-38.983c0-2.766.699-4.965 2.079-6.536 1.458-1.661 3.492-2.54 5.882-2.54 2.332 0 4.357.849 5.855 2.456 1.465 1.571 2.207 3.798 2.207 6.62v11.176h15.635v-11.176c0-2.78.719-4.988 2.137-6.563 1.479-1.644 3.492-2.512 5.824-2.512s4.356.849 5.856 2.455c1.465 1.573 2.208 3.8 2.208 6.62v38.983c0 2.821-.748 5.054-2.223 6.636-1.511 1.618-3.53 2.473-5.841 2.473zm-25.595-26.748h19.635c1.104 0 2 .896 2 2v15.639c0 1.766.37 3.082 1.1 3.912.708.806 1.644 1.197 2.86 1.197 1.207 0 2.161-.393 2.916-1.202.761-.817 1.148-2.131 1.148-3.907v-38.983c0-1.775-.381-3.085-1.133-3.892-.743-.795-1.702-1.183-2.931-1.183-1.199 0-2.131.389-2.851 1.188-.736.818-1.11 2.126-1.11 3.887v13.176c0 1.104-.896 2-2 2h-19.635c-1.104 0-2-.896-2-2v-13.176c0-1.776-.381-3.085-1.132-3.892-.743-.796-1.702-1.184-2.93-1.184-1.24 0-2.18.385-2.876 1.178-.72.82-1.085 2.131-1.085 3.897v38.983c0 1.766.371 3.082 1.101 3.913.708.805 1.644 1.196 2.86 1.196 1.207 0 2.16-.393 2.915-1.201.762-.816 1.148-2.131 1.148-3.908v-15.639c0-1.103.895-1.999 2-1.999z"/><path d="m176.403 188.085c-2.822 0-5.446-.276-7.798-.819-2.432-.563-4.683-1.458-6.689-2.662-2.015-1.21-3.881-2.811-5.546-4.758-1.477-1.756-2.74-3.726-3.767-5.867-1.021-2.128-1.796-4.428-2.306-6.836-.502-2.373-.756-4.921-.756-7.573 0-4.319.647-8.268 1.923-11.736 1.297-3.527 3.193-6.599 5.634-9.13 2.445-2.533 5.349-4.489 8.631-5.813 3.25-1.309 6.75-1.973 10.404-1.973 4.464 0 8.523.917 12.063 2.725 3.549 1.814 6.332 4.122 8.272 6.862 2.023 2.857 3.05 5.684 3.05 8.399 0 1.895-.696 3.649-2.012 5.073-1.375 1.492-3.153 2.281-5.139 2.281-2.069 0-3.734-.583-4.949-1.733-.902-.855-1.771-2.099-2.731-3.912-1.069-2.009-2.3-3.501-3.656-4.434-1.25-.859-2.875-1.295-4.831-1.295-3.215 0-5.59 1.124-7.475 3.538-2.008 2.572-3.026 6.437-3.026 11.485 0 3.424.465 6.262 1.383 8.435.834 1.97 1.99 3.437 3.438 4.357 1.482.943 3.279 1.421 5.343 1.421 2.226 0 4.096-.532 5.558-1.581 1.485-1.065 2.641-2.709 3.437-4.887.501-1.536 1.19-2.899 2.026-3.987.84-1.096 2.462-2.404 5.417-2.404 1.967 0 3.752.726 5.163 2.098 0 0 .001.001.001.001 1.432 1.396 2.189 3.212 2.189 5.254 0 1.971-.472 4.085-1.402 6.283-.912 2.154-2.339 4.271-4.242 6.289-1.942 2.06-4.426 3.744-7.385 5.005-2.952 1.257-6.391 1.894-10.222 1.894zm-.27-53.167c-3.14 0-6.137.566-8.909 1.683-2.757 1.112-5.195 2.754-7.248 4.88-2.052 2.128-3.653 4.73-4.758 7.734-1.113 3.025-1.677 6.508-1.677 10.354 0 2.375.225 4.645.669 6.746.443 2.096 1.116 4.092 2 5.934.881 1.839 1.961 3.524 3.211 5.01 1.374 1.606 2.909 2.928 4.553 3.915 1.647.988 3.509 1.727 5.533 2.195 2.057.476 4.377.717 6.896.717 3.29 0 6.201-.53 8.654-1.574 2.448-1.042 4.48-2.412 6.042-4.068 1.576-1.671 2.743-3.389 3.469-5.104.721-1.702 1.086-3.292 1.086-4.724 0-.978-.312-1.737-.981-2.39-.667-.648-1.443-.964-2.372-.964-1.6 0-2.084.632-2.243.839-.552.719-1.043 1.708-1.42 2.86-1.1 3.011-2.735 5.287-4.885 6.829-2.155 1.546-4.809 2.331-7.889 2.331-2.836 0-5.356-.688-7.49-2.046-2.144-1.364-3.818-3.441-4.974-6.174-1.127-2.668-1.699-6.03-1.699-9.992 0-5.962 1.303-10.654 3.873-13.947 2.63-3.369 6.206-5.077 10.627-5.077 2.781 0 5.168.672 7.097 1.999 1.891 1.3 3.547 3.27 4.922 5.854.733 1.382 1.388 2.352 1.95 2.884.446.423 1.186.637 2.197.637.875 0 1.575-.316 2.2-.994.641-.693.951-1.464.951-2.36 0-1.871-.779-3.919-2.314-6.088-1.563-2.207-3.86-4.095-6.828-5.611-2.97-1.518-6.417-2.288-10.243-2.288z"/></g><path d="m121.083 130.639c-.724 0-1.42-.306-1.91-.839s-.736-1.253-.675-1.974l1.679-19.821c-2.996 2.829-6.452 4.934-10.285 6.263-3.215 1.227-6.641 1.854-10.155 1.854-1.735 0-3.495-.156-5.229-.464-.559-.099-1.028-.496-1.225-1.035-.196-.539-.091-1.144.273-1.579 3.073-3.671 6.937-6.511 11.244-8.281-1.424-.122-2.84-.324-4.233-.606-6.761-1.154-13.191-4.202-18.564-8.811-.495-.425-.719-1.065-.598-1.712s.56-1.163 1.175-1.381c4.254-1.506 8.646-2.27 13.052-2.27 2.508 0 5.021.251 7.47.747.705.12 1.407.261 2.106.423-1.378-1.105-2.687-2.294-3.92-3.563-5.256-5.108-9.169-11.587-11.297-18.718-.163-.547-.06-1.124.283-1.584.342-.458.882-.732 1.445-.732.173 0 .345.025.512.075 7.131 2.127 13.61 6.04 18.739 11.317 1.327 1.289 2.573 2.671 3.729 4.133-.711-3.615-1.041-7.281-.985-10.952-.147-9.608 2.398-19.234 7.362-27.809.386-.667 1.081-1.066 1.858-1.066.778 0 1.472.398 1.858 1.066 4.963 8.574 7.509 18.201 7.362 27.839.055 3.602-.265 7.211-.953 10.773 1.125-1.411 2.338-2.749 3.63-4.005 5.108-5.256 11.587-9.169 18.718-11.297.167-.05.339-.075.512-.075.563 0 1.104.274 1.445.732.343.459.446 1.036.283 1.583-2.127 7.132-6.041 13.611-11.317 18.739-1.224 1.26-2.526 2.443-3.899 3.544.708-.164 1.42-.307 2.135-.429 2.419-.49 4.933-.741 7.44-.741 4.407 0 8.798.764 13.052 2.27.615.218 1.054.734 1.175 1.381s-.103 1.287-.598 1.712c-5.374 4.609-11.803 7.658-18.594 8.817-1.523.309-3.084.522-4.658.638 4.481 1.747 8.437 4.487 11.415 7.958l.241.284c.365.437.469 1.042.273 1.581s-.665.935-1.224 1.034c-1.734.308-3.493.464-5.228.464 0 0 0 0-.001 0-3.515 0-6.941-.627-10.184-1.864-3.747-1.299-7.153-3.359-10.115-6.121l1.667 19.69c.061.722-.185 1.441-.675 1.975-.49.533-1.186.839-1.91.839h-3.701z" fill="#6bdddd"/><path d="m124.788 132.639h-3.705c-1.283 0-2.516-.542-3.383-1.486-.867-.943-1.303-2.218-1.195-3.496l1.284-15.157c-2.239 1.538-4.662 2.763-7.241 3.657-5.068 1.935-10.794 2.463-16.389 1.469-1.258-.223-2.314-1.112-2.753-2.318-.439-1.209-.202-2.568.619-3.549 1.92-2.293 4.148-4.295 6.593-5.94-6.501-1.388-12.683-4.467-17.916-8.956-1.043-.895-1.515-2.239-1.262-3.596s1.178-2.441 2.474-2.9c5.551-1.965 11.343-2.729 17.083-2.241-5.038-5.175-8.814-11.621-10.921-18.683-.345-1.16-.127-2.381.597-3.351.938-1.258 2.629-1.827 4.132-1.377 7.208 2.15 13.781 6.047 19.058 11.291-.123-1.635-.172-3.273-.147-4.907-.153-9.918 2.486-19.892 7.631-28.78.748-1.292 2.089-2.064 3.589-2.064s2.842.771 3.589 2.064c5.145 8.887 7.784 18.871 7.631 28.871.024 1.561-.022 3.138-.138 4.719 5.22-5.174 11.771-9.049 18.961-11.194 1.5-.449 3.193.12 4.132 1.377.724.971.942 2.192.597 3.35-2.1 7.04-5.865 13.473-10.922 18.684 5.702-.479 11.53.276 17.084 2.243 1.296.458 2.221 1.543 2.474 2.9.253 1.356-.219 2.701-1.262 3.596-5.261 4.512-11.489 7.603-18.094 8.991 2.449 1.574 4.636 3.462 6.472 5.601l.25.294c.829.991 1.066 2.351.626 3.558-.438 1.207-1.494 2.095-2.753 2.319-5.595.993-11.294.476-16.475-1.501-2.476-.857-4.828-2.041-7.018-3.529l1.275 15.06c.108 1.278-.328 2.553-1.196 3.497-.866.942-2.099 1.484-3.381 1.484zm-4.611-26.635c.294 0 .591.065.868.199.747.36 1.194 1.144 1.124 1.97l-1.679 19.821c-.014.162.044.331.155.452s.274.192.438.192h3.705c.164 0 .327-.072.437-.192.111-.121.169-.29.156-.453l-1.667-19.689c-.07-.824.375-1.606 1.119-1.968s1.633-.228 2.238.336c2.756 2.571 5.921 4.486 9.406 5.694 4.379 1.669 9.052 2.146 13.724 1.434-2.714-3.074-6.305-5.542-10.397-7.137-.871-.339-1.391-1.236-1.252-2.16s.899-1.629 1.831-1.698c1.488-.11 2.971-.313 4.408-.604 6.392-1.092 12.398-3.911 17.447-8.169-6.245-2.154-12.883-2.614-19.128-1.349-.737.127-1.412.262-2.082.417-.912.21-1.843-.237-2.25-1.076s-.18-1.849.548-2.433c1.306-1.048 2.556-2.184 3.715-3.377 4.987-4.847 8.679-10.903 10.73-17.571-6.631 2.041-12.697 5.731-17.503 10.677-1.266 1.231-2.43 2.515-3.5 3.857-.574.719-1.566.954-2.401.569-.836-.386-1.301-1.292-1.126-2.196.662-3.422.97-6.909.917-10.363.142-9.337-2.311-18.607-7.093-26.868-.049-.084-.208-.082-.254 0-4.783 8.262-7.235 17.521-7.093 26.777-.054 3.581.265 7.125.947 10.597.178.906-.287 1.816-1.126 2.202-.838.387-1.832.148-2.405-.576-1.1-1.392-2.296-2.717-3.553-3.938-4.845-4.984-10.897-8.674-17.562-10.727 2.052 6.663 5.735 12.708 10.667 17.5 1.211 1.245 2.469 2.388 3.777 3.437.728.583.956 1.593.549 2.433-.407.839-1.336 1.287-2.249 1.077-.662-.152-1.326-.286-1.993-.399-6.466-1.307-12.975-.822-19.219 1.332 5.049 4.258 11.043 7.075 17.357 8.152 1.375.277 2.722.47 4.066.585.92.079 1.667.776 1.807 1.689s-.363 1.802-1.217 2.153c-3.792 1.558-7.242 4.036-10.019 7.188 4.671.712 9.367.227 13.637-1.402 3.618-1.256 6.837-3.216 9.625-5.849.376-.358.87-.546 1.37-.546z" fill="#3762cc"/></svg>