<?xml version="1.0" encoding="iso-8859-1"?>
<!-- Generator: Adobe Illustrator 19.0.0, SVG Export Plug-In . SVG Version: 6.00 Build 0)  -->
<svg version="1.1" id="Capa_1" xmlns="http://www.w3.org/2000/svg" xmlns:xlink="http://www.w3.org/1999/xlink" x="0px" y="0px"
	 viewBox="0 0 512.002 512.002" style="enable-background:new 0 0 512.002 512.002;" xml:space="preserve">
<path style="fill:#F7F5F2;" d="M129.962,401.92l12.666-32.827l-32.547,12.946C61.518,371.799,8.172,402.04,8.172,402.04
	c12.724,12.724,6.307,19.14,19.031,31.864c12.724,12.724,19.14,6.307,31.864,19.031c12.724,12.724,6.307,19.14,19.031,31.864
	c0.832,0.832,1.636,1.578,2.418,2.258l6.336-6.336C86.853,480.721,123.612,433.894,129.962,401.92z"/>
<g>
	<path style="fill:#F7E4E4;" d="M129.962,401.92l-49.446,85.137c11.17,9.704,17.554,4.881,29.445,16.773
		C109.962,503.83,140.202,450.484,129.962,401.92z"/>
	<path style="fill:#F7E4E4;" d="M487.058,80.515l-85.137,49.446c48.564,10.24,101.91-20.001,101.91-20.001
		C491.94,98.069,496.762,91.687,487.058,80.515z"/>
</g>
<path style="fill:#F7F5F2;" d="M487.058,80.515c-0.679-0.782-1.426-1.586-2.258-2.418c-12.724-12.724-19.14-6.307-31.864-19.031
	c-12.724-12.724-6.307-19.14-19.031-31.864c-12.724-12.724-19.14-6.307-31.864-19.031c0,0-30.241,53.346-20.001,101.91
	l-12.946,32.547l32.827-12.666c31.973-6.35,78.801-43.109,78.801-43.109L487.058,80.515z"/>
<g>
	<path style="fill:#F7E4E4;" d="M442.248,305.905l-19.881-20.327l-67.696,97.043c4.362,1.126,37.678,9.724,37.694,9.739
		C415.564,369.209,433.155,339.84,442.248,305.905z"/>
	<path style="fill:#F7E4E4;" d="M442.274,206.086c-8.1-30.357-23.748-59.094-46.912-83.307l37.683,92.695
		C438.119,210.308,442.265,206.089,442.274,206.086z"/>
	<path style="fill:#F7E4E4;" d="M315.086,409.45l-111.834,22.57c1.616,5.823,2.843,10.247,2.841,10.255
		c31.649,8.516,65.878,9.066,99.813-0.027L315.086,409.45z"/>
</g>
<path style="fill:#F7F5F2;" d="M315.086,409.45l1.444-5.16c13.588-5.552,26.243-12.913,37.664-21.79c0,0,0.171,0.045,0.477,0.123
	c4.983-4.206,9.846-8.669,14.564-13.387c24.928-24.928,42.729-53.849,53.132-83.656l-7.7-7.872c0.962-7.1,1.47-14.344,1.47-21.707
	c0-7.393-0.512-14.668-1.483-21.796c0,0,10.36-10.554,18.391-18.73c-1.619-34.82-14.015-67.459-37.683-92.695
	c-0.999-1.045-1.991-2.094-3.019-3.121l-38.223,9.788c-11.425-8.872-24.085-16.226-37.675-21.77c0,0-10.54-37.927-10.534-37.951
	c-31.649-8.516-65.879-9.065-99.814,0.027l-10.623,37.958c-13.588,5.552-26.243,12.913-37.664,21.79c0,0-38.154-9.846-38.171-9.862
	c-23.199,23.151-40.79,52.52-49.883,86.455l27.58,28.2c-0.963,7.1-1.471,14.345-1.471,21.707c0,7.393,0.512,14.667,1.483,21.796
	c0,0-27.596,28.112-27.619,28.119c8.45,31.667,25.088,61.585,49.93,86.428l38.223-9.789c11.425,8.872,24.085,16.226,37.675,21.77
	c0,0,4.573,16.456,7.693,27.696C239.459,436.43,278.793,428.72,315.086,409.45z"/>
<path style="fill:#F7E4E4;" d="M334.571,177.43c30.631,30.631,20.284,90.638-23.109,134.032s-103.401,53.739-134.032,23.109
	c43.392,43.392,113.747,43.392,157.14,0S377.965,220.824,334.571,177.43z"/>
<path style="fill:#DF3333;" d="M69.754,305.905l78.918-21.146c-5.239-19.551-4.921-39.282-0.009-57.526L69.75,206.098
	C61.212,237.742,60.662,271.97,69.754,305.905z"/>
<path style="fill:#992A2A;" d="M208.687,432.587l-85.994-37.305c23.382,22.367,52.116,38.581,83.4,46.993
	C206.094,442.27,207.106,438.49,208.687,432.587z"/>
<path style="fill:#DF3333;" d="M177.429,334.582l-57.773,57.761c0.544,0.544,1.106,1.065,1.656,1.601
	c-0.551-0.533-1.108-1.058-1.651-1.602c0.544,0.544,1.1,1.07,1.651,1.602c0.459,0.448,0.918,0.894,1.382,1.337
	c23.602,22.175,53.695,34.469,85.994,37.305c5.646-21.083,18.547-69.249,18.547-69.249
	C208.422,358.285,191.21,348.349,177.429,334.582z"/>
<path style="fill:#992A2A;" d="M369.236,369.233c-0.001,0.001-70.071,47.853-70.071,47.853l6.742,25.16
	c33.935-9.093,63.303-26.684,86.455-49.883C392.354,392.357,381.518,381.52,369.236,369.233z"/>
<path style="fill:#DF3333;" d="M369.236,369.233c-16.084-16.088-34.651-34.659-34.651-34.659
	c-13.344,13.376-30.272,23.517-49.823,28.756l14.405,53.758C324.127,406.361,348.115,390.353,369.236,369.233z"/>
<path style="fill:#992A2A;" d="M442.248,206.096l-9.66,2.588l-15.499,90.48l25.164,6.74
	C450.791,274.26,451.341,240.03,442.248,206.096z"/>
<g>
	<path style="fill:#DF3333;" d="M432.587,208.684l-69.257,18.557c5.239,19.551,4.921,39.282,0.009,57.526l53.749,14.396
		C429.909,269.323,435.168,238.09,432.587,208.684z"/>
	<path style="fill:#DF3333;" d="M305.905,69.75l-21.136,78.913c18.812,5.054,36.023,14.99,49.806,28.755l57.773-57.761
		C368.44,95.76,338.555,78.506,305.905,69.75z"/>
	<path style="fill:#DF3333;" d="M119.643,119.636c0.016,0.019,57.777,57.791,57.777,57.791
		c13.344-13.376,30.273-23.517,49.823-28.756l-21.146-78.918C172.162,78.847,142.794,96.438,119.643,119.636z"/>
</g>
<path d="M509.608,104.183c-4.988-4.988-6.111-8.397-7.535-12.712c-1.678-5.085-3.764-11.413-11.499-19.147
	c-7.736-7.737-14.064-9.824-19.149-11.501c-4.315-1.423-7.724-2.547-12.712-7.534c-4.988-4.989-6.112-8.398-7.535-12.713
	c-1.678-5.085-3.764-11.413-11.499-19.149c-7.736-7.734-14.063-9.822-19.147-11.498c-4.315-1.424-7.724-2.547-12.712-7.535
	c-1.804-1.804-4.345-2.665-6.875-2.319c-2.528,0.342-4.751,1.846-6.01,4.065c-1.129,1.99-24.236,43.363-23.151,87.664
	c-32.753-23.162-72.705-36.79-115.784-36.79c-54.953,0-104.818,22.176-141.137,58.041c-0.342,0.249-0.673,0.519-0.982,0.826
	c-0.308,0.308-0.577,0.639-0.826,0.982c-35.865,36.318-58.042,86.185-58.042,141.139c0,43.078,13.628,83.03,36.791,115.781
	c-44.301-1.085-85.673,22.024-87.663,23.152c-2.219,1.258-3.723,3.481-4.067,6.01c-0.342,2.527,0.515,5.071,2.319,6.875
	c4.988,4.988,6.111,8.397,7.535,12.712c1.678,5.085,3.764,11.413,11.499,19.147c7.736,7.737,14.064,9.824,19.149,11.501
	c4.315,1.423,7.724,2.547,12.712,7.534c4.988,4.989,6.112,8.398,7.535,12.713c1.678,5.085,3.764,11.413,11.499,19.149
	c7.736,7.734,14.063,9.822,19.147,11.498c4.315,1.424,7.724,2.547,12.712,7.535c1.543,1.543,3.625,2.393,5.777,2.393
	c0.365,0,0.732-0.024,1.098-0.074c2.528-0.342,4.751-1.846,6.01-4.065c0.661-1.167,16.271-28.985,21.504-63.38
	c0.679-4.461-2.387-8.627-6.848-9.306c-4.458-0.673-8.627,2.387-9.306,6.849c-3.126,20.541-10.508,38.885-15.258,49.148
	c-3.998-2.449-7.51-3.608-10.571-4.617c-4.314-1.424-7.722-2.547-12.711-7.534c-4.988-4.989-6.112-8.398-7.535-12.713
	c-1.677-5.085-3.764-11.413-11.499-19.149c-7.736-7.736-14.064-9.822-19.148-11.499c-4.315-1.423-7.724-2.547-12.712-7.536
	c-4.988-4.987-6.111-8.396-7.535-12.711c-1.01-3.062-2.168-6.574-4.62-10.574c16.042-7.428,51.848-21.278,85.129-15.268
	c2.302,2.584,4.668,5.108,7.098,7.57c0.248,0.342,0.517,0.673,0.826,0.982s0.639,0.576,0.98,0.826
	c36.319,35.864,86.185,58.041,141.139,58.041s104.819-22.177,141.138-58.041c0.341-0.249,0.672-0.517,0.98-0.826
	c0.308-0.308,0.577-0.639,0.826-0.982c35.865-36.319,58.042-86.185,58.042-141.138s-22.177-104.819-58.042-141.139
	c-0.248-0.342-0.517-0.673-0.826-0.982c-0.308-0.308-0.639-0.576-0.98-0.826c-2.461-2.43-4.986-4.795-7.57-7.097
	c-5.985-33.194,7.861-69.058,15.279-85.124c3.995,2.448,7.505,3.606,10.565,4.613c4.314,1.424,7.722,2.547,12.711,7.534
	c4.988,4.989,6.112,8.398,7.535,12.713c1.678,5.085,3.764,11.413,11.499,19.149c7.736,7.736,14.064,9.822,19.148,11.499
	c4.315,1.423,7.724,2.547,12.712,7.536c4.988,4.987,6.111,8.396,7.535,12.711c1.01,3.063,2.169,6.576,4.622,10.578
	c-10.239,4.745-28.542,12.113-49.154,15.249c-4.461,0.679-7.526,4.845-6.848,9.306c0.615,4.045,4.097,6.942,8.067,6.942
	c0.409,0,0.822-0.031,1.24-0.094c34.394-5.234,62.212-20.843,63.379-21.504c2.219-1.258,3.723-3.48,4.067-6.01
	C512.27,108.53,511.412,105.987,509.608,104.183z M432.075,200.365l-63.235,16.944c-5.061-14.719-12.925-28.145-22.954-39.639
	l46.263-46.264C410.091,150.995,423.869,174.451,432.075,200.365z M440.648,256.001c0,13.68-1.509,27.013-4.344,39.853
	l-63.234-16.943c1.449-7.417,2.217-15.075,2.217-22.91c0-7.836-0.768-15.493-2.217-22.91l63.234-16.943
	C439.139,228.987,440.648,242.32,440.648,256.001z M392.15,380.596l-46.263-46.264c10.029-11.493,17.892-24.919,22.954-39.639
	l63.235,16.944C423.869,337.551,410.091,361.008,392.15,380.596z M311.639,432.075l-16.944-63.235
	c14.719-5.061,28.145-12.925,39.637-22.953l46.263,46.264C361.008,410.091,337.552,423.868,311.639,432.075z M131.407,392.151
	l46.263-46.264c11.493,10.029,24.918,17.892,39.637,22.953l-16.944,63.235C174.451,423.868,150.994,410.091,131.407,392.151z
	 M79.927,311.637l63.235-16.944c5.061,14.719,12.925,28.145,22.954,39.639l-46.263,46.264
	C101.911,361.008,88.134,337.551,79.927,311.637z M71.355,256.001c0-13.68,1.509-27.013,4.344-39.853l63.234,16.943
	c-1.449,7.417-2.217,15.075-2.217,22.91c0,7.836,0.768,15.493,2.217,22.91l-63.234,16.943
	C72.863,283.014,71.355,269.682,71.355,256.001z M119.852,131.406l46.263,46.264c-10.029,11.493-17.892,24.919-22.954,39.639
	l-63.235-16.944C88.134,174.451,101.911,150.995,119.852,131.406z M229.438,355.464c-0.027-0.008-0.052-0.019-0.081-0.026
	c-0.024-0.007-0.049-0.01-0.073-0.016c-35.326-9.502-63.197-37.372-72.702-72.695c-0.007-0.027-0.01-0.054-0.017-0.082
	c-0.009-0.031-0.021-0.06-0.029-0.09c-2.265-8.474-3.478-17.374-3.478-26.553c0-9.192,1.218-18.105,3.489-26.591
	c0.005-0.019,0.014-0.034,0.019-0.052c0.008-0.027,0.011-0.054,0.017-0.082c9.507-35.33,37.386-63.202,72.718-72.701
	c0.02-0.004,0.038-0.005,0.057-0.011c0.027-0.008,0.053-0.019,0.081-0.026c8.478-2.266,17.381-3.482,26.563-3.482
	s18.086,1.216,26.563,3.482c0.027,0.008,0.052,0.019,0.081,0.026c0.02,0.005,0.038,0.007,0.058,0.012
	c35.333,9.498,63.211,37.37,72.718,72.7c0.007,0.027,0.01,0.054,0.017,0.082c0.004,0.019,0.014,0.034,0.019,0.052
	c2.271,8.486,3.489,17.399,3.489,26.591c0,9.179-1.215,18.079-3.479,26.553c-0.009,0.031-0.021,0.059-0.029,0.09
	c-0.008,0.027-0.011,0.054-0.017,0.082c-9.505,35.324-37.377,63.194-72.702,72.695c-0.024,0.007-0.049,0.01-0.074,0.016
	c-0.027,0.008-0.053,0.019-0.081,0.026c-8.478,2.266-17.381,3.482-26.563,3.482S237.916,357.73,229.438,355.464z M380.596,119.851
	l-46.263,46.264c-11.493-10.029-24.918-17.892-39.637-22.953l16.944-63.235C337.552,88.133,361.008,101.91,380.596,119.851z
	 M295.854,75.699l-16.944,63.233c-7.417-1.449-15.075-2.217-22.909-2.217c-7.835,0-15.493,0.768-22.909,2.217l-4.301-16.05
	c-1.168-4.359-5.648-6.949-10.007-5.777c-4.359,1.167-6.945,5.648-5.777,10.007l4.301,16.048
	c-14.719,5.061-28.145,12.925-39.637,22.953l-46.263-46.264c19.588-17.941,43.044-31.718,68.956-39.924l4.185,15.618
	c0.978,3.65,4.279,6.058,7.887,6.058c0.7,0,1.412-0.09,2.12-0.281c4.359-1.168,6.945-5.648,5.777-10.007l-4.184-15.616
	c12.84-2.837,26.173-4.344,39.853-4.344C269.682,71.354,283.014,72.863,295.854,75.699z M216.148,436.302l16.944-63.233
	c7.417,1.449,15.075,2.217,22.909,2.217c7.835,0,15.493-0.768,22.909-2.217l16.944,63.233c-12.84,2.837-26.173,4.344-39.853,4.344
	C242.321,440.647,228.988,439.139,216.148,436.302z"/>
<g>
</g>
<g>
</g>
<g>
</g>
<g>
</g>
<g>
</g>
<g>
</g>
<g>
</g>
<g>
</g>
<g>
</g>
<g>
</g>
<g>
</g>
<g>
</g>
<g>
</g>
<g>
</g>
<g>
</g>
</svg>
