<?xml version="1.0"?>
<svg xmlns="http://www.w3.org/2000/svg" id="Layer_2" height="512px" viewBox="0 0 128 128" width="512px" data-name="Layer 2" class=""><g><path d="m64 1.75a29 29 0 0 1 29 29v51.686a6 6 0 0 1 -6 6h-46a6 6 0 0 1 -6-6v-51.686a29 29 0 0 1 29-29z" fill="#ff738d" data-original="#FF738D" class="" style="fill:#FF7E26" data-old_color="#ff738d"/><rect fill="#ff3c63" height="45.603" rx="6.333" width="12.667" x="45" y="32.833" data-original="#FF3C63" class="" style="fill:#FF580F" data-old_color="#ff3c63"/><rect fill="#ff3c63" height="45.603" rx="6.333" width="12.667" x="70.333" y="32.833" data-original="#FF3C63" class="" style="fill:#FF580F" data-old_color="#ff3c63"/><path d="m52.833 88.436h22.334a0 0 0 0 1 0 0v26.647a11.167 11.167 0 0 1 -11.167 11.167 11.167 11.167 0 0 1 -11.167-11.167v-26.647a0 0 0 0 1 0 0z" fill="#ffaf10" data-original="#FFAF10" class="active-path" style="fill:#E5C7B6" data-old_color="#ffaf10"/><path d="m64 0a30.784 30.784 0 0 0 -30.75 30.75v51.687a7.759 7.759 0 0 0 7.75 7.75h10.083v24.9a1.75 1.75 0 0 0 3.5 0v-24.9h18.834v24.9a9.424 9.424 0 0 1 -12.951 8.732 1.75 1.75 0 1 0 -1.313 3.245 12.925 12.925 0 0 0 17.764-11.977v-24.9h10.083a7.759 7.759 0 0 0 7.75-7.75v-16.1a1.75 1.75 0 0 0 -3.5 0v16.1a4.255 4.255 0 0 1 -4.25 4.25h-46a4.255 4.255 0 0 1 -4.25-4.25v-51.687a27.25 27.25 0 0 1 54.5 0v11.23a1.75 1.75 0 0 0 3.5 0v-11.23a30.784 30.784 0 0 0 -30.75-30.75z" data-original="#000000" class=""/><path d="m93 50.929a1.749 1.749 0 0 0 -1.75 1.75v2.956a1.75 1.75 0 0 0 3.5 0v-2.956a1.749 1.749 0 0 0 -1.75-1.75z" data-original="#000000" class=""/><path d="m43.25 39.167v32.933a8.084 8.084 0 0 0 16.167 0v-32.933a8.084 8.084 0 1 0 -16.167 0zm12.667 0v32.933a4.584 4.584 0 0 1 -9.167 0v-32.933a4.584 4.584 0 1 1 9.167 0z" data-original="#000000" class=""/><path d="m76.667 31.083a8.093 8.093 0 0 0 -8.084 8.084v32.933a8.084 8.084 0 0 0 16.167 0v-32.933a8.092 8.092 0 0 0 -8.083-8.084zm4.583 41.017a4.584 4.584 0 0 1 -9.167 0v-32.933a4.584 4.584 0 1 1 9.167 0z" data-original="#000000" class=""/></g> </svg>
